#define im_width 200
#define im_height 200
static char im_bits[] = {
0xff,0xff,0xff,0xff,0xff,0xff,0xff,0xff,0xff,0xff,0xff,0xff,0xff,0xff,0xff,
0xff,0xff,0xff,0xff,0xff,0xff,0xff,0xff,0xff,0xff,0xff,0xff,0xff,0xff,0xff,
0xff,0xff,0xff,0xff,0xff,0xff,0xff,0xff,0xff,0xff,0xff,0xff,0xff,0xff,0xff,
0xff,0xff,0xff,0xff,0xff,0xff,0xff,0xff,0xff,0xff,0xff,0xff,0xff,0xff,0xff,
0xff,0xff,0xff,0xff,0xff,0xff,0xff,0xff,0xff,0xff,0xff,0xff,0xff,0xff,0xff,
0xff,0xff,0xff,0xff,0xff,0xff,0xff,0xff,0xff,0xff,0xff,0xff,0xff,0xff,0xff,
0xff,0xff,0xff,0xff,0xff,0xff,0xff,0xff,0xff,0xff,0xff,0xff,0xff,0xff,0xff,
0xff,0xff,0xff,0xff,0xff,0xff,0xff,0xff,0xff,0xff,0xff,0xff,0xff,0xff,0xff,
0xff,0xff,0xff,0xff,0xff,0xff,0xff,0xff,0xff,0xff,0xff,0xff,0xff,0xff,0xff,
0xff,0xff,0xff,0xff,0xff,0xff,0xff,0xff,0xff,0xff,0xff,0xff,0xff,0xff,0xff,
0xff,0xff,0xff,0xff,0xff,0xff,0xff,0xff,0xff,0xff,0xff,0xff,0xff,0xff,0xff,
0xff,0xff,0xff,0xff,0xff,0xff,0xff,0xff,0xff,0xff,0xff,0xff,0xff,0xff,0xff,
0xff,0xff,0xff,0xff,0xff,0xff,0xff,0xff,0xff,0xff,0xff,0xff,0xff,0xff,0xff,
0xff,0xff,0xff,0xff,0xff,0xff,0xff,0xff,0xff,0xff,0xff,0xff,0xff,0xff,0xff,
0xff,0xff,0xff,0xff,0xff,0xff,0xff,0xff,0xff,0xff,0xff,0xff,0xff,0xff,0xff,
0xff,0xff,0xff,0xff,0xff,0xff,0xff,0xff,0xff,0xff,0xff,0xff,0xff,0xff,0xff,
0xff,0xff,0xff,0xff,0xff,0xff,0xff,0xff,0xff,0xff,0xff,0xff,0xff,0xff,0xff,
0xff,0xff,0xff,0xff,0xff,0xff,0xff,0xff,0xff,0xff,0xff,0xff,0xff,0xff,0xff,
0xff,0xff,0xff,0xff,0xff,0xff,0xff,0xff,0xff,0xff,0xff,0xff,0xff,0xff,0xff,
0xff,0xff,0xff,0xff,0xff,0xff,0xff,0xff,0xff,0xff,0xff,0xff,0xff,0xff,0xff,
0xff,0xff,0xff,0xff,0xff,0xff,0xff,0xff,0xff,0xff,0xff,0xff,0xff,0xff,0xff,
0xff,0xff,0xff,0xff,0xff,0xff,0xff,0xff,0xff,0xff,0xff,0xff,0xff,0xff,0xff,
0xff,0xff,0xff,0xff,0xff,0xff,0xff,0xff,0xff,0xff,0xff,0xff,0xff,0xff,0xff,
0xff,0xff,0xff,0xff,0xff,0xff,0xff,0xff,0xff,0xff,0xff,0xff,0xff,0xff,0xff,
0xff,0xff,0xff,0xff,0xff,0xff,0xff,0xff,0xff,0xff,0xff,0xff,0xff,0xff,0xff,
0xff,0xff,0xff,0xff,0xff,0xff,0xff,0xff,0xff,0xff,0xff,0xff,0xff,0xff,0xff,
0xff,0xff,0xff,0xff,0xff,0xff,0xff,0xff,0xff,0xff,0xff,0xff,0xff,0xff,0xff,
0xff,0xff,0xff,0xff,0xff,0xff,0xff,0xff,0xff,0xff,0xff,0xff,0xff,0xff,0xff,
0xff,0xff,0xff,0xff,0xff,0xff,0xff,0xff,0xff,0xff,0xff,0xff,0xff,0xff,0xff,
0xff,0xff,0xff,0xff,0xff,0xff,0xff,0xff,0xff,0xff,0xff,0xff,0xff,0xff,0xff,
0xff,0xff,0xff,0xff,0xff,0xff,0xff,0xff,0xff,0xff,0xff,0xff,0xff,0xff,0xff,
0xff,0xff,0xff,0xff,0xff,0xff,0xff,0xff,0xff,0xff,0xff,0xff,0xff,0xff,0xff,
0xff,0xff,0xff,0xff,0xff,0xff,0xff,0xff,0xff,0xff,0xff,0xff,0xff,0xff,0xff,
0xff,0xff,0xff,0xff,0xff,0xff,0xff,0xff,0xff,0xff,0xff,0xff,0xff,0xff,0xff,
0xff,0xff,0xff,0xff,0xff,0xff,0xff,0xff,0xff,0xff,0xff,0xff,0xff,0xff,0xff,
0xff,0xff,0xff,0xff,0xff,0xff,0xff,0xff,0xff,0xff,0xff,0xff,0xff,0xff,0xff,
0xff,0xff,0xff,0xff,0xff,0xff,0xff,0xff,0xff,0xff,0xff,0xff,0xff,0xff,0xff,
0xff,0xff,0xff,0xff,0xff,0xff,0xff,0xff,0xff,0xff,0xff,0xff,0xff,0xff,0xff,
0xff,0xff,0xff,0xff,0xff,0xff,0xff,0xff,0xff,0xff,0xff,0xff,0xff,0xff,0xff,
0xff,0xff,0xff,0xff,0xff,0xff,0xff,0xff,0xff,0xff,0xff,0xff,0xff,0xff,0xff,
0xff,0xff,0xff,0xff,0xff,0xff,0xff,0xff,0xff,0xff,0xff,0xff,0xff,0xff,0xff,
0xff,0xff,0xff,0xff,0xff,0xff,0xff,0xff,0xff,0xff,0xff,0xff,0xff,0xff,0xff,
0xff,0xff,0xff,0xff,0xff,0xff,0xff,0xff,0xff,0xff,0xff,0xff,0xff,0xff,0xff,
0xff,0xff,0xff,0xff,0xff,0xff,0xff,0xff,0xff,0xff,0xff,0xff,0xff,0xff,0xff,
0xff,0xff,0xff,0xff,0xff,0xff,0xff,0xff,0xff,0xff,0xff,0xff,0xff,0xff,0xff,
0xff,0xff,0xff,0xff,0xff,0xff,0xff,0xff,0xff,0xff,0xff,0xff,0xff,0xff,0xff,
0xff,0xff,0xff,0xff,0xff,0xff,0xff,0xff,0xff,0xff,0xff,0xff,0xff,0xff,0xff,
0xff,0xff,0xff,0xff,0xff,0xff,0xff,0xff,0xff,0xff,0xff,0xff,0xff,0xff,0xff,
0xff,0xff,0xff,0xff,0xff,0xff,0xff,0xff,0xff,0xff,0xff,0xff,0xff,0xff,0xff,
0xff,0xff,0xff,0xff,0xff,0xff,0xff,0xff,0xff,0xff,0xff,0xff,0xff,0xff,0xff,
0xff,0xff,0xff,0xff,0xff,0xff,0xff,0xff,0xff,0xff,0xff,0xff,0xff,0xff,0xff,
0xff,0xff,0xff,0xff,0xff,0xff,0xff,0xff,0xff,0xff,0xff,0xff,0xff,0xff,0xff,
0xff,0xff,0xff,0xff,0xff,0xff,0xff,0xff,0xff,0xff,0xff,0xff,0xff,0xff,0xff,
0xff,0xff,0xff,0xff,0xff,0xff,0xff,0xff,0xff,0xff,0xff,0xff,0xff,0xff,0xff,
0xff,0xff,0xff,0xff,0xff,0xff,0xff,0xff,0xff,0xff,0xff,0xff,0xff,0xff,0xff,
0xff,0xff,0xff,0xff,0xff,0xff,0xff,0xff,0xff,0xff,0xff,0xff,0xff,0xff,0xff,
0xff,0xff,0xff,0xff,0xff,0xff,0xff,0xff,0xff,0xff,0xff,0xff,0xff,0xff,0xff,
0xff,0xff,0xff,0xff,0xff,0xff,0xff,0xff,0xff,0xff,0xff,0xff,0xff,0xff,0xff,
0xff,0xff,0xff,0xff,0xff,0xff,0xff,0xff,0xff,0xff,0xff,0xff,0xff,0xff,0xff,
0xff,0xff,0xff,0xff,0xff,0xff,0xff,0xff,0xff,0xff,0xff,0xff,0xff,0xff,0xff,
0xff,0xff,0xff,0xff,0xff,0xff,0xff,0xff,0xff,0xff,0xff,0xff,0xff,0xff,0xff,
0xff,0xff,0xff,0xff,0xff,0xff,0xff,0xff,0xff,0xff,0xff,0xff,0xff,0xff,0xff,
0xff,0xff,0xff,0xff,0xff,0xff,0xff,0xff,0xff,0xff,0xff,0xff,0xff,0xff,0xff,
0xff,0xff,0xff,0xff,0xff,0xff,0xff,0xff,0xff,0xff,0xff,0xff,0xff,0xff,0xff,
0xff,0xff,0xff,0xff,0xff,0xff,0xff,0xff,0xff,0xff,0xff,0xff,0xff,0xff,0xff,
0xff,0xff,0xff,0xff,0xff,0xff,0xff,0xff,0xff,0xff,0xff,0xff,0xff,0xff,0xff,
0xff,0xff,0xff,0xff,0xff,0xff,0xff,0xff,0xff,0xff,0xff,0xff,0xff,0xff,0xff,
0xff,0xff,0xff,0xff,0xff,0xff,0xff,0xff,0xff,0xff,0xff,0xff,0xff,0xff,0xff,
0xff,0xff,0xff,0xff,0xff,0xff,0xff,0xff,0xff,0xff,0xff,0xff,0xff,0xff,0xff,
0xff,0xff,0xff,0xff,0xff,0xff,0xff,0xff,0xff,0xff,0xff,0xff,0xff,0xff,0xff,
0xff,0xff,0xff,0xff,0xff,0xff,0xff,0xff,0xff,0xff,0xff,0xff,0xff,0xff,0xff,
0xff,0xff,0xff,0xff,0xff,0xff,0xff,0xff,0xff,0xff,0xb5,0xad,0xbb,0xff,0xff,
0xbb,0xff,0xff,0xff,0xff,0xff,0xff,0x57,0x55,0x49,0x92,0x94,0x24,0x09,0x00,
0x00,0x00,0x00,0x00,0x00,0x6d,0x7b,0xed,0x6a,0x5b,0xed,0xaa,0x6d,0xff,0xff,
0x6f,0xab,0x5a,0x95,0xaa,0x24,0x25,0x49,0x92,0x48,0x55,0x95,0x84,0x08,0x08,
0xdb,0xd6,0xbf,0xff,0xff,0xdb,0xff,0xff,0x6b,0xdb,0xfa,0xfd,0x57,0xa5,0x94,
0x4a,0xa9,0xaa,0x02,0x00,0x00,0x00,0x10,0x40,0x42,0xb6,0xbb,0xea,0xde,0xaa,
0x76,0x77,0xdb,0xfe,0xff,0x5f,0xaf,0xaa,0x2a,0xa9,0x24,0x4a,0x52,0x24,0x92,
0xaa,0x20,0x41,0x02,0x00,0xdb,0xf6,0xbf,0xf7,0xff,0xfd,0xfd,0xff,0xff,0xbf,
0xfb,0xfb,0xaa,0x54,0x25,0x49,0xa5,0x94,0x00,0x00,0x00,0x0a,0x04,0x90,0x24,
0xed,0xdd,0xee,0xbd,0xad,0xee,0xdf,0xee,0x6f,0xeb,0x6e,0xaf,0xaa,0x95,0x4a,
0x95,0x8a,0x4a,0x4a,0xa2,0xaa,0x80,0x90,0x04,0x00,0xbb,0xf6,0xfb,0xef,0x77,
0xbf,0xf7,0x7f,0xfb,0xff,0xbf,0x6d,0xb5,0x56,0xa9,0xa0,0x24,0x91,0x00,0x08,
0x01,0x22,0x05,0x00,0x11,0xed,0xbf,0xbf,0x7d,0xdd,0xf5,0x7e,0xfb,0xff,0x6d,
0xeb,0xdb,0x56,0x29,0x55,0x4d,0xa9,0x2a,0x25,0x42,0x54,0x08,0x21,0x21,0x00,
0xbf,0xed,0xf6,0xef,0x77,0xbf,0xdf,0xdf,0xdf,0xff,0x7d,0xab,0xaa,0x4a,0x25,
0x92,0x4a,0x02,0x02,0x20,0x01,0x41,0x08,0x08,0x44,0xf5,0xff,0xdf,0xbe,0xfd,
0xf7,0xfb,0xff,0xf6,0xaa,0xef,0xaa,0x55,0x55,0x4a,0x55,0x92,0x54,0x90,0x04,
0x2a,0x10,0x01,0x02,0x01,0xdf,0xda,0xfa,0xfb,0x6f,0xff,0xfe,0xf6,0xff,0xff,
0xba,0x75,0xad,0xaa,0x52,0xaa,0x2a,0x89,0x02,0x50,0x80,0x84,0x92,0x40,0x00,
0xfb,0xff,0xdf,0xae,0xfa,0xad,0xef,0xbf,0xaf,0xda,0xef,0x56,0xab,0xaa,0xaa,
0x24,0x55,0x52,0x52,0x85,0x2a,0x20,0x00,0x00,0x10,0xdf,0xb6,0xfd,0xff,0xaf,
0xff,0xbf,0xff,0xfd,0xbd,0xba,0xda,0x6a,0x95,0x4a,0x55,0x82,0x14,0x05,0x2a,
0x08,0x82,0x25,0x08,0x00,0xfd,0xff,0xb7,0xad,0xfa,0x76,0xfb,0xed,0x57,0xf7,
0xaf,0xb6,0x55,0xab,0xaa,0xaa,0x54,0x25,0xa2,0x40,0x21,0x20,0x00,0x42,0x44,
0xb7,0x5a,0xff,0xff,0xdf,0xdf,0xff,0xbf,0xfd,0xaa,0xaa,0x6a,0xad,0xaa,0xaa,
0x54,0x8a,0x48,0x02,0x04,0x84,0x88,0xa2,0x00,0x00,0xff,0xff,0x6d,0x5b,0xf5,
0xfa,0xdf,0xf6,0x57,0xff,0x57,0x5b,0xab,0x56,0x55,0x25,0x14,0x15,0x51,0x11,
0x08,0x02,0x09,0x00,0x01,0xd5,0xb6,0xff,0xff,0xdf,0xb7,0xfe,0x5f,0xfd,0x55,
0xad,0xb6,0xaa,0x9b,0x52,0x4a,0x49,0x29,0x41,0x84,0x92,0x20,0x41,0x10,0x08,
0xff,0xff,0xd5,0xb6,0x7d,0xed,0x6d,0xf5,0x57,0xff,0x6b,0xd5,0xaa,0xaa,0x94,
0x2a,0x92,0x42,0x0a,0x21,0x04,0x80,0x00,0x04,0x40,0xdb,0xb6,0xff,0xff,0xd7,
0x5b,0xff,0xbf,0xfe,0xd5,0x5a,0x55,0x55,0xad,0xaa,0x54,0x4a,0x14,0x21,0x00,
0x11,0x09,0x29,0x00,0x01,0xff,0xff,0xde,0x76,0x7f,0xed,0xaa,0xf6,0x55,0xbf,
0xd5,0x5b,0xab,0x2a,0x55,0xa5,0x94,0x42,0x0a,0x49,0x40,0x20,0x02,0x41,0x08,
0xad,0xd5,0xfb,0xdf,0xff,0xbb,0xf7,0x5b,0xff,0x6a,0xad,0xea,0xde,0x55,0x09,
0x2a,0x92,0x0c,0x21,0x04,0x10,0x80,0x40,0x00,0x00,0xff,0xff,0xae,0xfd,0xb7,
0xd6,0xba,0xff,0xad,0x5f,0x55,0xad,0xa9,0xaa,0x6a,0x51,0x44,0x11,0x85,0x20,
0x04,0x12,0x01,0x10,0x00,0xdb,0xb6,0xff,0xf7,0xfd,0x7b,0xef,0xaa,0xfb,0xda,
0x5a,0x55,0xbb,0x54,0x15,0xa4,0x14,0x4a,0x22,0x02,0x00,0x40,0x22,0x00,0x49,
0xff,0xff,0xb5,0xbd,0xff,0xdf,0xbd,0xff,0xae,0xb7,0x6a,0xf5,0xaa,0xaa,0xa2,
0x52,0x4a,0x04,0x81,0x48,0x40,0x90,0x00,0x02,0x00,0xb5,0x6d,0xff,0xef,0xf7,
0x7e,0xf7,0xed,0xfb,0xae,0xaa,0x4a,0x55,0xa9,0x4c,0x84,0x90,0x10,0x6a,0x97,
0x92,0x04,0x49,0x40,0x00,0xff,0xdf,0xab,0xfe,0xbe,0xf7,0xdf,0xbb,0xae,0x55,
0x55,0xb5,0xad,0xaa,0x92,0x50,0x0a,0x6a,0xd1,0x7a,0x6d,0x81,0x00,0x00,0x04,
0x6d,0x7b,0xff,0xfb,0xef,0x5f,0x75,0xff,0xfb,0xaa,0x6d,0xab,0x6a,0x55,0x25,
0x25,0x54,0x5a,0xb1,0xd7,0xba,0x13,0x11,0x11,0x01,0xff,0xed,0xda,0x6f,0xfb,
0xfd,0xff,0xad,0x5e,0xad,0xaa,0xaa,0x5a,0x55,0x55,0xc4,0x10,0x7c,0x6a,0x5d,
0x57,0x6d,0x44,0x00,0x20,0xad,0x5f,0x77,0xfb,0x7f,0x57,0x5b,0xff,0xbb,0x5a,
0x55,0x55,0x55,0x52,0x29,0x29,0x25,0xdd,0xd0,0xeb,0x6a,0xab,0x00,0x90,0x00,
0x7f,0xf5,0xde,0xbf,0xdd,0xff,0xff,0xab,0xa6,0xf5,0xaa,0x4a,0x55,0x25,0x55,
0x45,0x48,0xb4,0xea,0xd7,0xd6,0x5a,0x12,0x04,0x00,0xeb,0xaf,0xf5,0xf6,0xff,
0x6a,0x5b,0x5f,0xad,0xaa,0x56,0x55,0x55,0xaa,0x4a,0x92,0x11,0x7e,0x71,0xbd,
0xaa,0x6a,0x20,0x00,0x04,0x5f,0x7d,0xdf,0xbf,0xdb,0xbf,0xff,0x52,0x55,0xad,
0xb5,0x4a,0xad,0x52,0xa9,0x4a,0x28,0x54,0xea,0xd7,0xab,0x54,0x0d,0x21,0x00,
0xf5,0xd6,0x75,0xed,0x6f,0xfb,0x56,0xad,0xaa,0x6a,0xad,0x52,0x55,0xa5,0x12,
0x42,0x91,0x6a,0x51,0x6d,0x35,0x6d,0x28,0x00,0x21,0xaf,0x7f,0xff,0x7f,0xfd,
0xed,0xbf,0x55,0xb5,0x55,0x2b,0x4a,0x55,0x95,0x84,0x50,0xa1,0x8a,0x6a,0xd7,
0xa6,0x58,0x05,0x08,0x00,0x7d,0xed,0xaf,0xdb,0x57,0xbf,0xaa,0xaa,0x6a,0x6d,
0xd5,0x54,0x55,0x29,0x21,0x40,0x48,0x25,0xf1,0xb6,0x15,0x55,0x94,0x00,0x00,
0xf7,0xff,0xfd,0xfe,0xfe,0xed,0xaf,0x52,0x5d,0xab,0x5a,0x4a,0x55,0x41,0x85,
0x88,0x11,0x52,0x4a,0x6b,0xa7,0xb4,0x08,0x20,0x11,0x5f,0xbb,0xbf,0xb7,0x5b,
0xbf,0x5a,0xad,0x52,0x55,0x55,0x54,0xaa,0xaa,0x5b,0x40,0xd0,0x84,0xf2,0xde,
0x2a,0x55,0x95,0x02,0x00,0xf5,0xff,0xeb,0xed,0xfe,0xeb,0x55,0x55,0xad,0xaa,
0xad,0x8a,0x5a,0x75,0x55,0xa1,0x2a,0x29,0x49,0xab,0xa5,0x74,0x08,0x88,0x40,
0xbf,0xb7,0x7f,0xbf,0x6b,0xbf,0x56,0x55,0xd5,0x56,0x55,0x54,0x55,0xdb,0x5b,
0x45,0x14,0x02,0xd2,0x7d,0x27,0x55,0x29,0x00,0x08,0xf5,0xfe,0xb6,0xd5,0xff,
0x55,0x55,0x55,0x55,0x55,0x55,0x89,0xea,0x7e,0xb5,0x2a,0xa1,0x14,0x55,0xab,
0xde,0x6a,0x04,0x00,0x02,0xaf,0xb7,0xdf,0x7f,0x55,0xbf,0xaa,0xaa,0xaa,0xaa,
0x55,0x54,0x5d,0xab,0xef,0x2d,0x2a,0x05,0xd1,0xd6,0xa9,0x5e,0x29,0x21,0x20,
0xfd,0xfe,0x7a,0xd5,0xff,0x65,0xb5,0xd5,0x56,0xb5,0x56,0x89,0xea,0xde,0x2a,
0xdb,0x48,0x49,0x52,0x7b,0x05,0xb0,0x08,0x08,0x01,0xd7,0xb7,0xd7,0x7f,0x6d,
0x5f,0xab,0xaa,0x4a,0xab,0x54,0x94,0xbe,0xf7,0x2b,0xa4,0x93,0x02,0xa5,0x56,
0x90,0xa8,0x14,0x00,0x48,0xff,0xdd,0xbe,0xea,0xdf,0xd3,0x54,0x5d,0xd5,0xaa,
0x55,0x29,0xed,0x7d,0xd7,0x12,0x24,0x11,0xd2,0x2d,0x49,0x45,0x41,0x42,0x00,
0xbb,0xff,0xf5,0x5f,0x7b,0xb7,0xd6,0xb6,0xa6,0x5a,0x55,0x84,0xfe,0xdb,0x2b,
0x40,0x08,0x04,0xa9,0x0b,0x12,0x88,0x2a,0x00,0x10,0xff,0x55,0xaf,0xfa,0xed,
0xaa,0xaa,0xaa,0x4d,0xb5,0xaa,0x18,0xdd,0xf6,0xde,0x16,0x02,0x51,0x52,0x20,
0x24,0x51,0x04,0x00,0x02,0x6f,0xbf,0xf5,0x57,0x5f,0x6d,0xb5,0x6d,0x55,0xad,
0xaa,0xa4,0xf6,0xff,0xab,0x04,0x40,0xa0,0x8a,0x8a,0x28,0x8a,0x10,0x08,0x20,
0xfd,0xd5,0x5e,0xfd,0xf5,0xaa,0x5b,0x5b,0x45,0x57,0x55,0x08,0xfc,0xbd,0xb7,
0x45,0x04,0x5a,0x51,0x00,0xd5,0x20,0x45,0x02,0x08,0xdf,0x6e,0xeb,0xab,0x5f,
0x55,0xb5,0xaa,0x5a,0x5d,0xb5,0x2a,0xbd,0xfb,0xae,0x0a,0x29,0x51,0x25,0x25,
0x14,0x05,0x00,0x80,0x00,0x7b,0xdb,0xbd,0xfe,0xb6,0xaa,0xae,0x55,0x47,0x37,
0x75,0x08,0xde,0xd5,0x5b,0x11,0x54,0xaa,0x8a,0x40,0xab,0xa8,0x12,0x00,0x00,
0xef,0x6d,0xeb,0xb5,0x7b,0x6d,0x55,0xad,0xd4,0x5f,0xdd,0x90,0xfc,0xff,0xb6,
0x45,0x55,0x45,0x14,0xaa,0x16,0x02,0x00,0x00,0x48,0x5d,0xdb,0x5e,0xdf,0xae,
0x55,0xb5,0x6a,0x4b,0x7b,0x75,0x25,0xed,0xfe,0x6f,0xa9,0xaa,0x92,0x52,0x40,
0x55,0x91,0x02,0x89,0x00,0xf7,0x6e,0xfb,0xf5,0x77,0xab,0xad,0x55,0xd5,0x57,
0xbd,0x90,0xff,0xb7,0xbb,0xa5,0x4a,0x24,0x84,0xaa,0x8a,0x00,0x20,0x00,0x10,
0xad,0xdb,0xad,0x5f,0xad,0xba,0xaa,0x5a,0x85,0x7d,0xed,0xa1,0xdd,0xfe,0xd7,
0x52,0xa5,0x4a,0x29,0xa8,0x54,0x24,0x00,0x00,0x02,0x7b,0x6d,0x7b,0xf5,0xdb,
0x66,0xdb,0xa6,0xaa,0xaf,0xb4,0x8a,0xfb,0xdf,0xbe,0x55,0x89,0x10,0x92,0x52,
0x11,0x00,0x00,0x00,0x00,0xad,0xbb,0xad,0x5f,0xb7,0xba,0xb6,0xa9,0xca,0xb7,
0x7c,0x51,0xbf,0xf7,0xab,0x5a,0x52,0x8a,0x04,0x04,0x42,0x21,0x02,0x49,0x20,
0x7b,0xd7,0xf6,0xfa,0xac,0x6f,0x55,0x55,0x95,0xbd,0xb4,0xa5,0xf5,0xfd,0x77,
0xad,0x04,0x21,0x51,0x55,0x09,0x00,0x20,0x00,0x08,0xd6,0xba,0xdb,0x57,0x6b,
0xd5,0xaa,0xaa,0xd2,0x77,0xfa,0xfa,0xae,0xae,0xae,0x4b,0x49,0x40,0x92,0x96,
0x92,0x28,0x00,0x00,0x00,0xdd,0xd6,0x6e,0xdd,0x56,0xad,0xad,0xaa,0xa6,0xaf,
0xac,0xaf,0xdb,0x75,0xdb,0x10,0x02,0x08,0x40,0x55,0x20,0x04,0x08,0x00,0x02,
0x6b,0xbb,0xdd,0xab,0xbd,0xb5,0xaa,0x6a,0x89,0x7d,0x77,0xfd,0xb6,0xd6,0xaa,
0xd6,0x08,0x20,0x09,0x00,0x08,0x80,0x00,0x49,0x40,0xde,0x6e,0x6b,0x7d,0x55,
0xad,0xaa,0xaa,0xaa,0xd7,0xde,0x55,0x6b,0xad,0x6d,0x29,0x02,0x02,0x80,0xaa,
0x00,0x25,0x44,0x00,0x00,0xb5,0xb5,0xbd,0xab,0xad,0xea,0xaa,0x57,0xc8,0xbf,
0xb5,0xd6,0xd6,0x6a,0x5b,0x92,0x90,0x80,0x04,0x00,0x02,0x00,0x08,0x00,0x10,
0x6b,0x6f,0xd7,0x56,0x6b,0x9b,0x6a,0x35,0x95,0x56,0xdb,0xbd,0xad,0x2a,0xaa,
0x04,0x04,0x20,0x20,0x11,0x50,0x50,0x21,0x4a,0x84,0xde,0xda,0xbd,0xb5,0xd6,
0x6a,0x55,0x55,0xa0,0xbf,0x77,0x57,0x55,0x5b,0x41,0xa0,0x80,0x00,0x08,0x80,
0x04,0x02,0x04,0x00,0x20,0xb5,0xb5,0xd6,0xaa,0xad,0xd6,0x56,0x95,0xca,0x6b,
0xdd,0x7d,0xdb,0x16,0x0a,0x09,0x24,0x89,0x00,0x02,0x00,0x50,0xa1,0x84,0x08,
0x6b,0xef,0xbd,0x56,0xb5,0x55,0x5d,0x55,0x88,0xde,0x7f,0x57,0xd5,0xd5,0x52,
0xa3,0x48,0x24,0x52,0xa0,0x00,0x10,0x04,0x20,0x02,0xde,0x5a,0xd7,0xd5,0x6a,
0xaa,0xab,0x8a,0x52,0xb7,0xea,0xdd,0xb6,0x2a,0xe9,0x14,0x25,0x44,0x80,0x04,
0x94,0x44,0x91,0x02,0x00,0xb5,0xf7,0xbd,0xba,0x95,0x75,0xaa,0x2a,0x84,0xdf,
0x5f,0xab,0xaa,0xab,0x54,0x55,0x8a,0x92,0x6d,0xbb,0x21,0x12,0x04,0x00,0x20,
0x6b,0xad,0x6b,0xab,0xb6,0xaa,0x15,0x94,0xa8,0xb6,0xfe,0x6d,0xdd,0xb6,0xaa,
0x6a,0xb5,0xa5,0xaa,0xaa,0x4a,0xa5,0xa0,0x44,0x00,0xde,0x7b,0x5f,0x75,0x55,
0x35,0x4a,0x01,0x85,0xef,0xb7,0xdb,0x6a,0x6f,0xa9,0xad,0xaa,0x56,0x55,0x55,
0x55,0x08,0x02,0x00,0x04,0xb5,0xd6,0x6a,0xd5,0xad,0x5a,0x0a,0x55,0x2a,0x5d,
0xfd,0x56,0xab,0xa9,0x52,0x55,0x55,0xa5,0xda,0x6a,0xa5,0x52,0x00,0x11,0x00,
0xdb,0xfd,0x55,0xb5,0x6a,0xb7,0x24,0x48,0x44,0x6f,0xd7,0xbd,0xda,0x6f,0x8a,
0xaa,0xa4,0xa9,0x2a,0x55,0x2b,0x05,0x49,0x00,0x00,0x6d,0xab,0x5e,0xab,0x55,
0x0d,0xc1,0x92,0xaa,0xda,0xbd,0xb7,0xb6,0x5a,0xa1,0x2a,0x49,0x82,0xca,0xaa,
0x92,0x28,0x00,0x00,0x10,0xf7,0x7e,0xab,0x56,0xab,0x52,0x84,0x2a,0x95,0x6e,
0xef,0xbe,0xd5,0x92,0x84,0x92,0x02,0x11,0x54,0x55,0x44,0x82,0x00,0x00,0x04,
0x5d,0xab,0x55,0xb5,0xaa,0x2a,0x29,0xa1,0x8a,0xda,0xfa,0x6d,0xb7,0x2d,0x59,
0x45,0x00,0x40,0xa4,0x2a,0x01,0x08,0x04,0x00,0x00,0xfb,0x5d,0xa5,0xaa,0x2a,
0xd5,0x42,0xd5,0xab,0xaa,0xdd,0xff,0xaa,0x52,0xa2,0x14,0x0a,0x00,0x89,0x4a,
0x95,0x24,0x81,0x10,0x00,0xad,0xb6,0x4e,0xad,0xaa,0x9a,0x9a,0x52,0x95,0xde,
0x76,0xd5,0xd6,0x08,0xaa,0x02,0x20,0x21,0xa4,0x94,0x22,0x00,0x00,0x00,0x00,
0x7f,0x6b,0x59,0x95,0xa4,0x6a,0x25,0x69,0xa5,0xaa,0xdd,0xbf,0xac,0x64,0x11,
0x49,0x42,0x88,0x48,0x22,0x09,0x44,0x00,0x00,0x10,0xd5,0xae,0x52,0x55,0x29,
0x55,0x55,0x52,0x95,0x5a,0xeb,0x6d,0xab,0x00,0xa2,0x00,0x08,0x22,0x89,0x54,
0x12,0x00,0x04,0x00,0x00,0x5f,0xa9,0x56,0x55,0xd3,0xb2,0xaa,0xaa,0xaa,0xf6,
0x7a,0x9f,0x54,0x49,0x08,0x92,0x52,0x95,0x50,0x10,0x84,0x04,0x01,0x00,0x00,
0xdb,0x6b,0xa9,0xb6,0xae,0xa5,0x4a,0x92,0x4a,0xad,0xd6,0x5b,0x95,0x00,0x21,
0x08,0x24,0x09,0x04,0x45,0x12,0x20,0x00,0x44,0x04,0xb7,0xaa,0xd6,0xed,0x75,
0x55,0x95,0x64,0xd5,0xd2,0xfa,0x1f,0x29,0x91,0x42,0x85,0x50,0x12,0x28,0x10,
0x04,0x00,0x00,0x00,0x40,0xad,0xda,0x2d,0x15,0xd5,0x95,0xaa,0xaa,0x92,0xaa,
0xaa,0xb6,0x54,0xa2,0x54,0x50,0x82,0x2a,0x01,0x81,0x48,0x02,0x00,0x88,0x00,
0xdb,0xb6,0x7a,0xfb,0xba,0x7f,0x25,0x59,0x55,0x55,0xb5,0x5b,0xab,0xaa,0x42,
0x95,0x5a,0x01,0x14,0x10,0x02,0x00,0x40,0x00,0x08,0xb5,0xad,0xad,0xd6,0x6b,
0x55,0x55,0xb2,0xaa,0x2a,0x55,0xed,0x56,0x5d,0x55,0xa5,0x24,0x0a,0x40,0x00,
0x29,0x00,0x00,0x00,0x00,0x6f,0xab,0xaa,0xad,0xde,0xaf,0x4a,0xad,0xaa,0x24,
0xf5,0xb6,0xaa,0xbb,0xaa,0x6a,0x4b,0x48,0x11,0x40,0x80,0x80,0x00,0x00,0x00,
0x48,0xaa,0xaa,0x52,0xab,0x5a,0x95,0xd4,0xaa,0x49,0xaa,0x7d,0xdf,0xb6,0xad,
0xd5,0x2a,0x11,0x04,0x04,0x12,0x20,0x08,0x00,0x00,0x55,0x15,0x49,0xda,0xda,
0xb5,0x24,0xaa,0xaa,0xaa,0x54,0xef,0xba,0x6f,0xab,0xb2,0x2b,0x04,0x02,0x21,
0x00,0x00,0x02,0x40,0x10,0xaa,0xaa,0xaa,0xaa,0x6a,0x6b,0x89,0xaa,0xaa,0x28,
0xa1,0x5a,0xf7,0xba,0xdd,0xe5,0x96,0x00,0x00,0x80,0x08,0x00,0x00,0x08,0x04,
0x55,0xa5,0x94,0x54,0x55,0x2d,0x55,0xaa,0x54,0xa5,0x2a,0xa1,0x84,0x6a,0xab,
0xda,0x4d,0x40,0x54,0x09,0xa2,0x12,0x00,0x00,0x00,0x95,0x54,0xa5,0xaa,0x56,
0x55,0x2a,0x91,0xa2,0x90,0x94,0x4a,0x2a,0x92,0x48,0x25,0x95,0x8a,0x82,0x52,
0x49,0xa4,0xaa,0x42,0x20,0x6b,0x95,0xaa,0xaa,0xb5,0xaa,0x40,0x4a,0x54,0x02,
0x21,0x29,0x51,0x49,0x12,0x52,0x20,0x51,0x08,0x04,0x10,0x01,0x00,0x08,0x85,
0x56,0x55,0x54,0x55,0x49,0x55,0x8a,0x00,0x09,0x4a,0x94,0xa4,0x96,0xaa,0xaa,
0x84,0x4a,0x04,0x42,0x20,0x01,0x08,0x00,0x00,0x00,0x55,0xd5,0x5b,0xa5,0xd6,
0xaa,0x20,0x55,0xa0,0x80,0x2a,0xa9,0x6a,0xbb,0x55,0x29,0x11,0x91,0x10,0x02,
0x24,0xa1,0x24,0x91,0x10,0x5b,0xab,0x56,0x55,0x29,0x95,0x4a,0x82,0x4a,0xad,
0xa4,0xaa,0xaa,0x4a,0x55,0x6b,0xa5,0x00,0x80,0x90,0x00,0x08,0x00,0x00,0x04,
0xbd,0x5a,0xb5,0xad,0xaa,0xaa,0x54,0x28,0x89,0x2a,0x55,0x55,0x95,0xb2,0x4a,
0x8a,0x2a,0x25,0x02,0x00,0x04,0x00,0x01,0x02,0x41,0x6b,0xab,0xaa,0x4a,0xaa,
0xaa,0xaa,0xaa,0xb2,0xda,0xda,0xaf,0x6a,0x4d,0x55,0xb5,0x6a,0x89,0x28,0x04,
0x41,0x29,0x54,0x28,0x08,0x56,0xed,0x56,0xd5,0xa4,0x5a,0x55,0x55,0xaa,0x57,
0x77,0x7b,0x5b,0x5b,0x55,0x25,0x95,0xb6,0x02,0x51,0x08,0x80,0x00,0x01,0x21,
0xb5,0xb5,0x6d,0x2b,0x5b,0xf5,0xaa,0xaa,0xda,0xda,0xd4,0xae,0xfd,0x56,0xa9,
0x92,0x00,0x64,0x15,0x00,0x21,0x02,0x00,0x20,0x00,0x6d,0x5b,0xdb,0x5a,0xaa,
0x2e,0xd5,0xad,0x6a,0x37,0xef,0x7b,0x97,0xaa,0x96,0x24,0x6d,0x93,0x20,0x10,
0x00,0x10,0x22,0x04,0x04,0xdb,0xfe,0x55,0xb5,0xb5,0xd5,0x2a,0xab,0xaa,0xdf,
0xba,0xef,0x6a,0x55,0xa9,0x42,0x49,0x44,0x85,0x2c,0x00,0x80,0x00,0x00,0x21,
0x6d,0xab,0xae,0xaa,0x5b,0x7b,0xd5,0x54,0x6b,0x7d,0xf7,0x5a,0x5b,0xa5,0x04,
0x89,0x92,0x0a,0x2a,0x49,0x49,0x04,0x08,0x41,0x00,0xdb,0x7d,0xdb,0x56,0x56,
0xd5,0xaa,0xea,0xda,0x56,0xad,0xab,0x56,0x59,0xb5,0x54,0x14,0x91,0x40,0x22,
0x00,0xa1,0x40,0x08,0x08,0xad,0xd6,0x56,0xed,0xaa,0x5a,0xad,0x9a,0x55,0x7b,
0x69,0xdd,0xd5,0x56,0xa5,0xaa,0x6b,0x22,0x28,0x88,0x08,0x00,0x04,0x22,0x42,
0x5b,0xb5,0x55,0xab,0x76,0x57,0xb5,0x55,0xd5,0x56,0xd7,0xb6,0xaa,0xd5,0xaa,
0x2a,0x84,0x84,0x42,0x25,0x41,0x24,0x20,0x00,0x00,0xaa,0xaa,0xaa,0xaa,0xca,
0xda,0xaa,0xaa,0xaa,0xb5,0xba,0x6d,0x5b,0xb5,0x5a,0x95,0x12,0x29,0xaa,0x48,
0x2a,0x00,0x00,0x81,0x00,0x55,0x55,0x75,0x55,0xa9,0x52,0xab,0xa4,0x5a,0xad,
0x65,0xdb,0xb6,0x4a,0x55,0x55,0xb5,0x42,0x09,0x25,0x49,0x01,0x49,0x10,0x08,
0xae,0xaa,0x4a,0xab,0xaa,0x56,0x55,0x55,0xaa,0xb7,0x5a,0xb5,0xad,0x55,0x55,
0x55,0xab,0x1a,0x22,0x00,0x94,0x14,0x00,0x04,0x42,0xa9,0xaa,0xb6,0x5a,0x55,
0xa8,0x54,0x55,0xa5,0x6e,0xbd,0xaf,0x6a,0x5b,0x55,0xbb,0xaa,0xa2,0x44,0x24,
0x40,0xa8,0x4a,0x40,0x00,0xdb,0x56,0xd5,0x6d,0xaf,0x05,0xa9,0x55,0x49,0xda,
0xeb,0x5a,0x55,0xea,0xea,0xd6,0x55,0x4d,0x10,0x09,0x48,0x01,0x80,0x12,0x08,
0xb6,0x6d,0x95,0xda,0x28,0x6a,0x52,0x55,0xaa,0x35,0x5d,0x77,0xab,0x5d,0x55,
0x2d,0x0a,0x12,0x09,0x44,0x01,0x82,0x20,0x80,0x42,0x55,0xdb,0xbb,0x36,0x6b,
0x55,0xad,0xaa,0x52,0x6d,0xeb,0xae,0x6a,0xa5,0xaa,0x52,0xa4,0x40,0xa0,0x10,
0x94,0x10,0x04,0x08,0x00,0xdb,0x2a,0xd6,0xa5,0x94,0x82,0x90,0x92,0xd4,0x4b,
0x55,0xf5,0x9a,0xaa,0x2a,0x84,0x10,0x0a,0x05,0x42,0x00,0x00,0x01,0x21,0x24,
0xff,0xff,0xff,0xff,0xff,0xff,0xff,0xff,0xff,0xff,0xff,0xff,0xff,0xff,0xff,
0xff,0xff,0xff,0xff,0xff,0xff,0xff,0xff,0xff,0xff,0xff,0xff,0xff,0xff,0xff,
0xff,0xff,0xff,0xff,0xff,0xff,0xff,0xff,0xff,0xff,0xff,0xff,0xff,0xff,0xff,
0xff,0xff,0xff,0xff,0xff,0xff,0xff,0xff,0xff,0xff,0xff,0xff,0xff,0xff,0xff,
0xff,0xff,0xff,0xff,0xff,0xff,0xff,0xff,0xff,0xff,0xff,0xff,0xff,0xff,0xff,
0xff,0xff,0xff,0xff,0xff,0xff,0xff,0xff,0xff,0xff,0xff,0xff,0xff,0xff,0xff,
0xff,0xff,0xff,0xff,0xff,0xff,0xff,0xff,0xff,0xff,0xff,0xff,0xff,0xff,0xff,
0xff,0xff,0xff,0xff,0xff,0xff,0xff,0xff,0xff,0xff,0xff,0xff,0xff,0xff,0xff,
0xff,0xff,0xff,0xff,0xff,0xff,0xff,0xff,0xff,0xff,0xff,0xff,0xff,0xff,0xff,
0xff,0xff,0xff,0xff,0xff,0xff,0xff,0xff,0xff,0xff,0xff,0xff,0xff,0xff,0xff,
0xff,0xff,0xff,0xff,0xff,0xff,0xff,0xff,0xff,0xff,0xff,0xff,0xff,0xff,0xff,
0xff,0xff,0xff,0xff,0xff,0xff,0xff,0xff,0xff,0xff,0xff,0xff,0xff,0xff,0xff,
0xff,0xff,0xff,0xff,0xff,0xff,0xff,0xff,0xff,0xff,0xff,0xff,0xff,0xff,0xff,
0xff,0xff,0xff,0xff,0xff,0xff,0xff,0xff,0xff,0xff,0xff,0xff,0xff,0xff,0xff,
0xff,0xff,0xff,0xff,0xff,0xff,0xff,0xff,0xff,0xff,0xff,0xff,0xff,0xff,0xff,
0xff,0xff,0xff,0xff,0xff,0xff,0xff,0xff,0xff,0xff,0xff,0xff,0xff,0xff,0xff,
0xff,0xff,0xff,0xff,0xff,0xff,0xff,0xff,0xff,0xff,0xff,0xff,0xff,0xff,0xff,
0xff,0xff,0xff,0xff,0xff,0xff,0xff,0xff,0xff,0xff,0xff,0xff,0xff,0xff,0xff,
0xff,0xff,0xff,0xff,0xff,0xff,0xff,0xff,0xff,0xff,0xff,0xff,0xff,0xff,0xff,
0xff,0xff,0xff,0xff,0xff,0xff,0xff,0xff,0xff,0xff,0xff,0xff,0xff,0xff,0xff,
0xff,0xff,0xff,0xff,0xff,0xff,0xff,0xff,0xff,0xff,0xff,0xff,0xff,0xff,0xff,
0xff,0xff,0xff,0xff,0xff,0xff,0xff,0xff,0xff,0xff,0xff,0xff,0xff,0xff,0xff,
0xff,0xff,0xff,0xff,0xff,0xff,0xff,0xff,0xff,0xff,0xff,0xff,0xff,0xff,0xff,
0xff,0xff,0xff,0xff,0xff,0xff,0xff,0xff,0xff,0xff,0xff,0xff,0xff,0xff,0xff,
0xff,0xff,0xff,0xff,0xff,0xff,0xff,0xff,0xff,0xff,0xff,0xff,0xff,0xff,0xff,
0xff,0xff,0xff,0xff,0xff,0xff,0xff,0xff,0xff,0xff,0xff,0xff,0xff,0xff,0xff,
0xff,0xff,0xff,0xff,0xff,0xff,0xff,0xff,0xff,0xff,0xff,0xff,0xff,0xff,0xff,
0xff,0xff,0xff,0xff,0xff,0xff,0xff,0xff,0xff,0xff,0xff,0xff,0xff,0xff,0xff,
0xff,0xff,0xff,0xff,0xff,0xff,0xff,0xff,0xff,0xff,0xff,0xff,0xff,0xff,0xff,
0xff,0xff,0xff,0xff,0xff,0xff,0xff,0xff,0xff,0xff,0xff,0xff,0xff,0xff,0xff,
0xff,0xff,0xff,0xff,0xff,0xff,0xff,0xff,0xff,0xff,0xff,0xff,0xff,0xff,0xff,
0xff,0xff,0xff,0xff,0xff,0xff,0xff,0xff,0xff,0xff,0xff,0xff,0xff,0xff,0xff,
0xff,0xff,0xff,0xff,0xff,0xff,0xff,0xff,0xff,0xff,0xff,0xff,0xff,0xff,0xff,
0xff,0xff,0xff,0xff,0xff,0xff,0xff,0xff,0xff,0xff,0xff,0xff,0xff,0xff,0xff,
0xff,0xff,0xff,0xff,0xff,0xff,0xff,0xff,0xff,0xff,0xff,0xff,0xff,0xff,0xff,
0xff,0xff,0xff,0xff,0xff,0xff,0xff,0xff,0xff,0xff,0xff,0xff,0xff,0xff,0xff,
0xff,0xff,0xff,0xff,0xff,0xff,0xff,0xff,0xff,0xff,0xff,0xff,0xff,0xff,0xff,
0xff,0xff,0xff,0xff,0xff,0xff,0xff,0xff,0xff,0xff,0xff,0xff,0xff,0xff,0xff,
0xff,0xff,0xff,0xff,0xff,0xff,0xff,0xff,0xff,0xff,0xff,0xff,0xff,0xff,0xff,
0xff,0xff,0xff,0xff,0xff,0xff,0xff,0xff,0xff,0xff,0xff,0xff,0xff,0xff,0xff,
0xff,0xff,0xff,0xff,0xff,0xff,0xff,0xff,0xff,0xff,0xff,0xff,0xff,0xff,0xff,
0xff,0xff,0xff,0xff,0xff,0xff,0xff,0xff,0xff,0xff,0xff,0xff,0xff,0xff,0xff,
0xff,0xff,0xff,0xff,0xff,0xff,0xff,0xff,0xff,0xff,0xff,0xff,0xff,0xff,0xff,
0xff,0xff,0xff,0xff,0xff,0xff,0xff,0xff,0xff,0xff,0xff,0xff,0xff,0xff,0xff,
0xff,0xff,0xff,0xff,0xff,0xff,0xff,0xff,0xff,0xff,0xff,0xff,0xff,0xff,0xff,
0xff,0xff,0xff,0xff,0xff,0xff,0xff,0xff,0xff,0xff,0xff,0xff,0xff,0xff,0xff,
0xff,0xff,0xff,0xff,0xff,0xff,0xff,0xff,0xff,0xff,0xff,0xff,0xff,0xff,0xff,
0xff,0xff,0xff,0xff,0xff,0xff,0xff,0xff,0xff,0xff,0xff,0xff,0xff,0xff,0xff,
0xff,0xff,0xff,0xff,0xff,0xff,0xff,0xff,0xff,0xff,0xff,0xff,0xff,0xff,0xff,
0xff,0xff,0xff,0xff,0xff,0xff,0xff,0xff,0xff,0xff,0xff,0xff,0xff,0xff,0xff,
0xff,0xff,0xff,0xff,0xff,0xff,0xff,0xff,0xff,0xff,0xff,0xff,0xff,0xff,0xff,
0xff,0xff,0xff,0xff,0xff,0xff,0xff,0xff,0xff,0xff,0xff,0xff,0xff,0xff,0xff,
0xff,0xff,0xff,0xff,0xff,0xff,0xff,0xff,0xff,0xff,0xff,0xff,0xff,0xff,0xff,
0xff,0xff,0xff,0xff,0xff,0xff,0xff,0xff,0xff,0xff,0xff,0xff,0xff,0xff,0xff,
0xff,0xff,0xff,0xff,0xff,0xff,0xff,0xff,0xff,0xff,0xff,0xff,0xff,0xff,0xff,
0xff,0xff,0xff,0xff,0xff,0xff,0xff,0xff,0xff,0xff,0xff,0xff,0xff,0xff,0xff,
0xff,0xff,0xff,0xff,0xff,0xff,0xff,0xff,0xff,0xff,0xff,0xff,0xff,0xff,0xff,
0xff,0xff,0xff,0xff,0xff,0xff,0xff,0xff,0xff,0xff,0xff,0xff,0xff,0xff,0xff,
0xff,0xff,0xff,0xff,0xff,0xff,0xff,0xff,0xff,0xff,0xff,0xff,0xff,0xff,0xff,
0xff,0xff,0xff,0xff,0xff,0xff,0xff,0xff,0xff,0xff,0xff,0xff,0xff,0xff,0xff,
0xff,0xff,0xff,0xff,0xff,0xff,0xff,0xff,0xff,0xff,0xff,0xff,0xff,0xff,0xff,
0xff,0xff,0xff,0xff,0xff,0xff,0xff,0xff,0xff,0xff,0xff,0xff,0xff,0xff,0xff,
0xff,0xff,0xff,0xff,0xff,0xff,0xff,0xff,0xff,0xff,0xff,0xff,0xff,0xff,0xff,
0xff,0xff,0xff,0xff,0xff,0xff,0xff,0xff,0xff,0xff,0xff,0xff,0xff,0xff,0xff,
0xff,0xff,0xff,0xff,0xff,0xff,0xff,0xff,0xff,0xff,0xff,0xff,0xff,0xff,0xff,
0xff,0xff,0xff,0xff,0xff,0xff,0xff,0xff,0xff,0xff,0xff,0xff,0xff,0xff,0xff,
0xff,0xff,0xff,0xff,0xff,0xff,0xff,0xff,0xff,0xff,0xff,0xff,0xff,0xff,0xff,
0xff,0xff,0xff,0xff,0xff,0xff,0xff,0xff,0xff,0xff,0xff,0xff,0xff,0xff,0xff,
0xff,0xff,0xff,0xff,0xff,0xff,0xff,0xff,0xff,0xff,0xff,0xff,0xff,0xff,0xff,
0xff,0xff,0xff,0xff,0xff,0xff,0xff,0xff,0xff,0xff,0xff,0xff,0xff,0xff,0xff,
0xff,0xff,0xff,0xff,0xff,0xff,0xff,0xff,0xff,0xff,0xff,0xff,0xff,0xff,0xff,
0xff,0xff,0xff,0xff,0xff,0xff,0xff,0xff,0xff,0xff,0xff,0xff,0xff,0xff,0xff,
0xff,0xff,0xff,0xff,0xff,0xff,0xff,0xff,0xff,0xff,0xff,0xff,0xff,0xff,0xff,
0xff,0xff,0xff,0xff,0xff
};
